<?xml version="1.0" encoding="utf-8"?>
<!-- Generator: Adobe Illustrator 26.2.1, SVG Export Plug-In . SVG Version: 6.00 Build 0)  -->
<svg version="1.1" id="Calque_1" xmlns="http://www.w3.org/2000/svg" xmlns:xlink="http://www.w3.org/1999/xlink" x="0px" y="0px"
	 viewBox="0 0 13 16" style="enable-background:new 0 0 13 16;" xml:space="preserve">
<style type="text/css">
	.st0{fill:#8800FF;}
</style>
<g>
	<path class="st0" d="M0.3,10.75C0.3,10.75,0.3,10.75,0.3,10.75c0,0,0.23-1.84,0-4.68c-0.23-2.84,2.2-5.8,5.94-5.83
		c3.75-0.03,6.67,2.72,6.47,6.29c-0.21,3.57-2.46,5.77-5.47,6.18s-3.37,0.06-6.88,3.04c0,0,0,0,0,0c0,0,0.7-4.16,3.57-6.52
		c0.61-0.5,1.39-0.69,2.17-0.61c0.16,0.02,0.32,0.01,0.49-0.01c0.87-0.13,1.56-0.85,1.65-1.73C8.37,5.7,7.45,4.71,6.3,4.71
		c-0.74,0-1.38,0.41-1.72,1.01"/>
</g>
</svg>
